{
.appVersion = "3151";
.formatVersion = 3;
DisplayStrings = (
"ABCDEFGF ",
"ABCDEFGHIJKLMNOPQRSTUVWXYZ

0123456789

 


",
ABCD,
R
);
axes = (
{
name = release;
tag = rlse;
}
);
date = "2024-04-05 13:41:48 +0000";
familyName = "New Font";
fontMaster = (
{
axesValues = (
0
);
id = m01;
metricValues = (
{
over = 16;
pos = 800;
},
{
over = 16;
pos = 700;
},
{
over = 16;
pos = 500;
},
{
over = -16;
},
{
over = -16;
pos = -200;
},
{
over = -16;
}
);
name = Regular;
userData = {
GSCornerRadius = 15;
};
},
{
axesValues = (
100
);
id = m002;
metricValues = (
{
over = 16;
pos = 800;
},
{
over = 16;
pos = 700;
},
{
over = 16;
pos = 500;
},
{
over = -16;
},
{
over = -16;
pos = -200;
},
{
over = -16;
}
);
name = release;
userData = {
GSCornerRadius = 35;
};
},
{
axesValues = (
200
);
id = m003;
metricValues = (
{
over = 16;
pos = 800;
},
{
over = 16;
pos = 700;
},
{
over = 16;
pos = 500;
},
{
over = -16;
},
{
over = -16;
pos = -200;
},
{
over = -16;
}
);
name = "release-2";
userData = {
GSCornerRadius = 35;
};
}
);
glyphs = (
{
glyphname = A;
lastChange = "2024-04-19 02:34:31 +0000";
layers = (
{
layerId = m01;
shapes = (
{
closed = 1;
nodes = (
(274,577,o),
(247,454,o),
(221,332,cs),
(197,221,o),
(174,111,o),
(150,0,c),
(200,99,o),
(250,198,o),
(300,297,c),
(350,198,o),
(400,99,o),
(450,0,c),
(425,116,o),
(400,232,o),
(375,348,cs),
(350,465,o),
(325,582,o),
(300,699,c)
);
},
{
closed = 1;
nodes = (
(313,392,o),
(324,403,o),
(324,417,cs),
(324,431,o),
(313,442,o),
(299,442,cs),
(285,442,o),
(274,431,o),
(274,417,cs),
(274,403,o),
(285,392,o),
(299,392,cs)
);
}
);
width = 600;
},
{
layerId = m002;
shapes = (
{
closed = 1;
nodes = (
(175,699,o),
(247,454,o),
(221,332,cs),
(197,221,o),
(47,48,o),
(150,0,cs),
(251,-46,o),
(189,297,o),
(300,297,cs),
(411,297,o),
(358,-62,o),
(450,0,cs),
(548,67,o),
(400,232,o),
(375,348,cs),
(350,465,o),
(420,699,o),
(300,699,cs)
);
},
{
closed = 1;
nodes = (
(313,392,o),
(324,403,o),
(324,417,cs),
(324,431,o),
(313,442,o),
(299,442,cs),
(285,442,o),
(274,431,o),
(274,417,cs),
(274,403,o),
(285,392,o),
(299,392,cs)
);
}
);
width = 600;
},
{
layerId = m003;
shapes = (
{
closed = 1;
nodes = (
(175,699,o),
(34,344,o),
(8,222,cs),
(-16,111,o),
(26,26,o),
(150,0,cs),
(250,-22,o),
(219,99,o),
(324,99,cs),
(431,99,o),
(342,13,o),
(450,0,cs),
(682,-28,o),
(576,157,o),
(551,273,cs),
(526,390,o),
(420,699,o),
(300,699,cs)
);
},
{
closed = 1;
nodes = (
(370,183,o),
(443,162,o),
(469,173,cs),
(526,197,o),
(446,425,o),
(324,452,cs),
(189,481,o),
(85,202,o),
(148,172,cs),
(173,160,o),
(278,197,o),
(312,192,cs)
);
}
);
width = 600;
}
);
unicode = 65;
},
{
glyphname = B;
lastChange = "2024-04-19 02:31:00 +0000";
layers = (
{
layerId = m01;
shapes = (
{
closed = 1;
nodes = (
(212,469,o),
(212,234,o),
(212,0,c),
(282,82,o),
(351,163,o),
(421,245,c),
(396,280,o),
(371,315,o),
(347,350,cs),
(321,386,o),
(295,423,o),
(269,459,c),
(293,497,o),
(316,536,o),
(340,574,c),
(317,597,o),
(295,620,o),
(272,643,cs),
(252,663,o),
(232,683,o),
(212,703,c)
);
},
{
closed = 1;
nodes = (
(271,529,o),
(282,540,o),
(282,554,cs),
(282,568,o),
(271,579,o),
(257,579,cs),
(243,579,o),
(232,568,o),
(232,554,cs),
(232,540,o),
(243,529,o),
(257,529,cs)
);
},
{
closed = 1;
nodes = (
(306,222,o),
(317,233,o),
(317,247,cs),
(317,261,o),
(306,272,o),
(292,272,cs),
(278,272,o),
(267,261,o),
(267,247,cs),
(267,233,o),
(278,222,o),
(292,222,cs)
);
}
);
width = 600;
},
{
layerId = m002;
shapes = (
{
closed = 1;
nodes = (
(212,469,o),
(212,234,o),
(212,0,cs),
(212,-108,o),
(421,137,o),
(421,245,cs),
(421,288,o),
(371,315,o),
(347,350,cs),
(321,386,o),
(269,415,o),
(269,459,cs),
(269,504,o),
(372,542,o),
(340,574,cs),
(317,597,o),
(295,620,o),
(272,643,cs),
(252,663,o),
(212,731,o),
(212,703,cs)
);
},
{
closed = 1;
nodes = (
(271,529,o),
(282,540,o),
(282,554,cs),
(282,568,o),
(271,579,o),
(257,579,cs),
(243,579,o),
(232,568,o),
(232,554,cs),
(232,540,o),
(243,529,o),
(257,529,cs)
);
},
{
closed = 1;
nodes = (
(306,222,o),
(317,233,o),
(317,247,cs),
(317,261,o),
(306,272,o),
(292,272,cs),
(278,272,o),
(267,261,o),
(267,247,cs),
(267,233,o),
(278,222,o),
(292,222,cs)
);
}
);
width = 600;
},
{
layerId = m003;
shapes = (
{
closed = 1;
nodes = (
(28,562,o),
(-95,31,o),
(182,0,cs),
(283,-11,o),
(483,-29,o),
(546,70,cs),
(567,103,o),
(621,241,o),
(577,310,cs),
(546,358,o),
(511,343,o),
(511,378,cs),
(511,420,o),
(556,395,o),
(583,480,cs),
(592,508,o),
(610,601,o),
(534,664,cs),
(468,720,o),
(166,752,o),
(83,637,cs)
);
},
{
closed = 1;
nodes = (
(271,529,o),
(282,540,o),
(282,554,cs),
(282,568,o),
(271,579,o),
(257,579,cs),
(243,579,o),
(232,568,o),
(232,554,cs),
(232,540,o),
(243,529,o),
(257,529,cs)
);
},
{
closed = 1;
nodes = (
(306,222,o),
(317,233,o),
(317,247,cs),
(317,261,o),
(306,272,o),
(292,272,cs),
(278,272,o),
(267,261,o),
(267,247,cs),
(267,233,o),
(278,222,o),
(292,222,cs)
);
}
);
width = 600;
}
);
unicode = 66;
},
{
glyphname = C;
lastChange = "2024-04-19 01:57:13 +0000";
layers = (
{
layerId = m01;
shapes = (
{
closed = 1;
nodes = (
(144,570,o),
(99,440,o),
(55,310,c),
(182,207,o),
(308,103,o),
(435,0,c),
(364,128,o),
(294,256,o),
(223,384,c),
(211,489,o),
(200,595,o),
(188,700,c)
);
}
);
width = 600;
},
{
layerId = m002;
shapes = (
{
closed = 1;
nodes = (
(51,700,o),
(55,447,o),
(55,310,cs),
(55,146,o),
(286,-67,o),
(435,0,cs),
(569,60,o),
(272,246,o),
(223,384,cs),
(188,484,o),
(294,700,o),
(188,700,cs)
);
}
);
width = 600;
},
{
layerId = m003;
shapes = (
{
closed = 1;
nodes = (
(71,844,o),
(11,472,o),
(11,304,cs),
(11,35,o),
(217,-49,o),
(532,12,cs),
(722,49,o),
(427,132,o),
(434,328,cs),
(442,548,o),
(684,581,o),
(556,636,cs)
);
}
);
width = 600;
}
);
unicode = 67;
},
{
glyphname = D;
lastChange = "2024-04-19 02:31:18 +0000";
layers = (
{
layerId = m01;
shapes = (
{
closed = 1;
nodes = (
(241,467,o),
(196,233,o),
(150,0,c),
(250,113,o),
(350,226,o),
(450,339,c),
(396,459,o),
(341,580,o),
(287,700,c)
);
},
{
closed = 1;
nodes = (
(330,328,o),
(341,339,o),
(341,353,cs),
(341,367,o),
(330,378,o),
(316,378,cs),
(302,378,o),
(291,367,o),
(291,353,cs),
(291,339,o),
(302,328,o),
(316,328,cs)
);
}
);
width = 600;
},
{
layerId = m002;
shapes = (
{
closed = 1;
nodes = (
(50,700,o),
(53,217,o),
(150,0,cs),
(212,-138,o),
(450,188,o),
(450,339,cs),
(450,471,o),
(419,700,o),
(287,700,cs)
);
},
{
closed = 1;
nodes = (
(330,328,o),
(341,339,o),
(341,353,cs),
(341,367,o),
(330,378,o),
(316,378,cs),
(302,378,o),
(291,367,o),
(291,353,cs),
(291,339,o),
(302,328,o),
(316,328,cs)
);
}
);
width = 600;
},
{
layerId = m003;
shapes = (
{
closed = 1;
nodes = (
(84,700,o),
(-44,188,o),
(45,48,cs),
(117,-64,o),
(529,13,o),
(580,204,cs),
(624,370,o),
(503,700,o),
(184,700,cs)
);
},
{
closed = 1;
nodes = (
(182,149,o),
(350,151,o),
(405,217,cs),
(453,274,o),
(454,331,o),
(439,422,cs),
(426,504,o),
(359,616,o),
(294,592,cs),
(206,559,o),
(92,181,o),
(168,154,cs)
);
}
);
width = 600;
}
);
unicode = 68;
},
{
glyphname = E;
lastChange = "2024-04-12 11:37:38 +0000";
layers = (
{
layerId = m01;
shapes = (
{
closed = 1;
nodes = (
(289,582,o),
(210,463,o),
(130,345,c),
(235,230,o),
(339,115,o),
(444,0,c),
(403,99,o),
(362,199,o),
(321,298,c),
(354,319,o),
(387,340,o),
(420,361,c),
(377,376,o),
(335,391,o),
(292,406,c),
(318,504,o),
(343,602,o),
(369,700,c)
);
}
);
width = 600;
},
{
layerId = m002;
shapes = (
{
closed = 1;
nodes = (
(235,650,o),
(130,488,o),
(130,345,cs),
(130,189,o),
(293,38,o),
(444,0,cs),
(548,-26,o),
(321,191,o),
(321,298,cs),
(321,337,o),
(420,322,o),
(420,361,cs),
(420,407,o),
(292,360,o),
(292,406,cs),
(292,507,o),
(464,735,o),
(369,700,cs)
);
}
);
width = 600;
},
{
layerId = m003;
shapes = (
{
closed = 1;
nodes = (
(422,713,o),
(10,777,o),
(10,337,cs),
(10,-67,o),
(561,-70,o),
(594,131,cs),
(618,277,o),
(471,219,o),
(471,263,cs),
(471,302,o),
(591,322,o),
(591,361,cs),
(591,407,o),
(436,409,o),
(436,455,cs),
(436,559,o),
(685,579,o),
(560,643,cs)
);
}
);
width = 600;
}
);
unicode = 69;
},
{
glyphname = F;
lastChange = "2024-04-19 02:31:59 +0000";
layers = (
{
layerId = m01;
shapes = (
{
closed = 1;
nodes = (
(267,567,o),
(366,633,o),
(466,700,c),
(412,632,o),
(359,563,o),
(305,495,c),
(342,470,o),
(380,445,o),
(417,420,c),
(371,406,o),
(325,393,o),
(279,379,c),
(242,253,o),
(204,126,o),
(167,0,c),
(167,167,o),
(167,333,o),
(167,500,c)
);
}
);
width = 600;
},
{
layerId = m002;
shapes = (
{
closed = 1;
nodes = (
(167,620,o),
(346,700,o),
(466,700,cs),
(555,700,o),
(288,589,o),
(288,500,cs),
(288,449,o),
(417,471,o),
(417,420,cs),
(417,366,o),
(283,449,o),
(255,402,cs),
(185,284,o),
(167,-137,o),
(167,0,cs),
(167,167,o),
(167,333,o),
(167,500,cs)
);
}
);
width = 600;
},
{
layerId = m003;
shapes = (
{
closed = 1;
nodes = (
(154,712,o),
(532,729,o),
(573,657,cs),
(628,561,o),
(479,568,o),
(504,483,cs),
(518,435,o),
(631,452,o),
(590,312,cs),
(574,258,o),
(409,314,o),
(350,267,cs),
(249,185,o),
(375,0,o),
(167,0,cs),
(-62,0,o),
(1,570,o),
(45,611,cs)
);
}
);
width = 600;
}
);
unicode = 70;
},
{
glyphname = G;
lastChange = "2024-04-19 02:28:38 +0000";
layers = (
{
layerId = m01;
shapes = (
{
closed = 1;
nodes = (
(271,557,o),
(210,413,o),
(150,270,c),
(198,180,o),
(247,90,o),
(295,0,c),
(347,123,o),
(398,246,o),
(450,369,c),
(402,364,o),
(355,360,o),
(307,355,c),
(315,470,o),
(323,585,o),
(331,700,c)
);
}
);
width = 600;
},
{
layerId = m002;
shapes = (
{
closed = 1;
nodes = (
(194,626,o),
(150,425,o),
(150,270,cs),
(150,168,o),
(193,0,o),
(295,0,cs),
(429,0,o),
(445,236,o),
(450,369,cs),
(452,417,o),
(323,310,o),
(307,355,cs),
(268,463,o),
(432,755,o),
(331,700,cs)
);
}
);
width = 600;
},
{
layerId = m003;
shapes = (
{
closed = 1;
nodes = (
(69,852,o),
(7,479,o),
(7,260,cs),
(7,41,o),
(193,0,o),
(295,0,cs),
(555,0,o),
(585,214,o),
(592,387,cs),
(594,435,o),
(457,389,o),
(398,420,cs),
(260,493,o),
(714,589,o),
(508,673,cs)
);
}
);
width = 600;
}
);
unicode = 71;
},
{
glyphname = H;
lastChange = "2024-04-12 11:57:40 +0000";
layers = (
{
layerId = m01;
shapes = (
{
closed = 1;
nodes = (
(150,470,o),
(150,235,o),
(150,0,c),
(200,103,o),
(250,206,o),
(300,309,c),
(350,206,o),
(400,102,o),
(450,-1,c),
(450,233,o),
(450,466,o),
(450,700,c),
(400,588,o),
(350,476,o),
(300,364,c),
(250,478,o),
(200,591,o),
(150,705,c)
);
}
);
width = 600;
},
{
layerId = m002;
shapes = (
{
closed = 1;
nodes = (
(150,470,o),
(150,235,o),
(150,0,cs),
(150,-114,o),
(186,309,o),
(300,309,cs),
(414,309,o),
(450,-115,o),
(450,-1,cs),
(450,233,o),
(450,466,o),
(450,700,cs),
(450,823,o),
(423,364,o),
(300,364,cs),
(176,364,o),
(150,829,o),
(150,705,cs)
);
}
);
width = 600;
},
{
layerId = m003;
shapes = (
{
closed = 1;
nodes = (
(-42,700,o),
(-27,-15,o),
(115,0,cs),
(260,16,o),
(229,125,o),
(343,125,cs),
(457,125,o),
(358,-12,o),
(492,0,cs),
(607,10,o),
(628,666,o),
(511,686,cs),
(366,711,o),
(475,576,o),
(352,576,cs),
(228,576,o),
(260,700,o),
(150,700,cs)
);
}
);
width = 600;
}
);
unicode = 72;
},
{
glyphname = I;
lastChange = "2024-04-12 11:42:08 +0000";
layers = (
{
layerId = m01;
shapes = (
{
closed = 1;
nodes = (
(241,243,o),
(241,121,o),
(241,0,c),
(270,0,o),
(298,0,o),
(327,0,c),
(327,121,o),
(327,243,o),
(327,364,c),
(312,476,o),
(297,588,o),
(282,700,c),
(268,588,o),
(255,476,o),
(241,364,c)
);
}
);
width = 600;
},
{
layerId = m002;
shapes = (
{
closed = 1;
nodes = (
(241,243,o),
(241,121,o),
(241,0,cs),
(241,-29,o),
(298,0,o),
(327,0,cs),
(448,0,o),
(327,243,o),
(327,364,cs),
(327,477,o),
(395,700,o),
(282,700,cs),
(169,700,o),
(241,477,o),
(241,364,cs)
);
}
);
width = 600;
},
{
layerId = m003;
shapes = (
{
closed = 1;
nodes = (
(30,255,o),
(-46,57,o),
(63,6,cs),
(110,-16,o),
(510,0,o),
(539,0,cs),
(638,0,o),
(571,256,o),
(571,376,cs),
(571,514,o),
(599,700,o),
(293,700,cs),
(30,700,o),
(30,574,o),
(30,376,cs)
);
}
);
width = 600;
}
);
unicode = 73;
},
{
glyphname = J;
lastChange = "2024-04-12 11:43:27 +0000";
layers = (
{
layerId = m01;
shapes = (
{
closed = 1;
nodes = (
(368,467,o),
(422,233,o),
(475,0,c),
(370,64,o),
(266,128,o),
(161,192,c),
(218,189,o),
(275,185,o),
(332,182,c),
(326,355,o),
(321,527,o),
(315,700,c)
);
}
);
width = 600;
},
{
layerId = m002;
shapes = (
{
closed = 1;
nodes = (
(307,939,o),
(545,228,o),
(475,0,cs),
(439,-118,o),
(237,95,o),
(161,192,cs),
(126,237,o),
(316,127,o),
(332,182,cs),
(382,348,o),
(321,527,o),
(315,700,cs)
);
}
);
width = 600;
},
{
layerId = m003;
shapes = (
{
closed = 1;
nodes = (
(367,874,o),
(791,26,o),
(475,0,cs),
(171,-25,o),
(12,110,o),
(22,228,cs),
(33,354,o),
(158,330,o),
(211,330,cs),
(350,330,o),
(186,519,o),
(262,668,cs)
);
}
);
width = 600;
}
);
unicode = 74;
},
{
glyphname = K;
lastChange = "2024-04-12 11:45:05 +0000";
layers = (
{
background = {
shapes = (
{
closed = 1;
nodes = (
(274,577,o),
(247,454,o),
(221,332,cs),
(197,221,o),
(174,111,o),
(150,0,c),
(200,99,o),
(250,198,o),
(300,297,c),
(350,198,o),
(400,99,o),
(450,0,c),
(425,116,o),
(400,232,o),
(375,348,cs),
(350,465,o),
(325,582,o),
(300,699,c)
);
},
{
closed = 1;
nodes = (
(303,396,o),
(303,394,o),
(291,385,cs),
(263,365,o),
(226,336,o),
(271,335,c),
(288,339,o),
(300,345,o),
(315,345,cs),
(331,345,o),
(325,341,o),
(339,335,c),
(350,335,o),
(382,335,o),
(336,374,cs),
(329,380,o),
(326,392,o),
(313,396,c)
);
}
);
};
layerId = m01;
shapes = (
{
closed = 1;
nodes = (
(250,466,o),
(200,233,o),
(150,0,c),
(190,66,o),
(231,132,o),
(271,198,c),
(319,162,o),
(367,126,o),
(415,90,c),
(377,159,o),
(338,228,o),
(300,297,c),
(350,355,o),
(400,413,o),
(450,471,c),
(401,446,o),
(352,421,o),
(303,396,c),
(302,497,o),
(301,598,o),
(300,699,c)
);
}
);
width = 600;
},
{
background = {
shapes = (
{
closed = 1;
nodes = (
(274,577,o),
(247,454,o),
(221,332,cs),
(197,221,o),
(174,111,o),
(150,0,c),
(200,99,o),
(250,198,o),
(300,297,c),
(350,198,o),
(400,99,o),
(450,0,c),
(425,116,o),
(400,232,o),
(375,348,cs),
(350,465,o),
(325,582,o),
(300,699,c)
);
},
{
closed = 1;
nodes = (
(303,396,o),
(303,394,o),
(291,385,cs),
(263,365,o),
(226,336,o),
(271,335,c),
(288,339,o),
(300,345,o),
(315,345,cs),
(331,345,o),
(325,341,o),
(339,335,c),
(350,335,o),
(382,335,o),
(336,374,cs),
(329,380,o),
(326,392,o),
(313,396,c)
);
}
);
};
layerId = m002;
shapes = (
{
closed = 1;
nodes = (
(298,937,o),
(164,238,o),
(150,0,cs),
(145,-77,o),
(194,198,o),
(271,198,cs),
(331,198,o),
(398,33,o),
(415,90,cs),
(438,165,o),
(300,218,o),
(300,297,cs),
(300,374,o),
(448,394,o),
(450,471,cs),
(452,526,o),
(358,396,o),
(303,396,cs),
(202,396,o),
(301,598,o),
(300,699,cs)
);
}
);
width = 600;
},
{
background = {
shapes = (
{
closed = 1;
nodes = (
(274,577,o),
(247,454,o),
(221,332,cs),
(197,221,o),
(174,111,o),
(150,0,c),
(200,99,o),
(250,198,o),
(300,297,c),
(350,198,o),
(400,99,o),
(450,0,c),
(425,116,o),
(400,232,o),
(375,348,cs),
(350,465,o),
(325,582,o),
(300,699,c)
);
},
{
closed = 1;
nodes = (
(303,396,o),
(303,394,o),
(291,385,cs),
(263,365,o),
(226,336,o),
(271,335,c),
(288,339,o),
(300,345,o),
(315,345,cs),
(331,345,o),
(325,341,o),
(339,335,c),
(350,335,o),
(382,335,o),
(336,374,cs),
(329,380,o),
(326,392,o),
(313,396,c)
);
}
);
};
layerId = m003;
shapes = (
{
closed = 1;
nodes = (
(47,825,o),
(-107,-26,o),
(150,0,cs),
(223,7,o),
(257,83,o),
(334,83,cs),
(394,83,o),
(562,-35,o),
(579,22,cs),
(602,97,o),
(488,235,o),
(488,314,cs),
(488,391,o),
(584,457,o),
(586,534,cs),
(588,589,o),
(350,519,o),
(295,519,cs),
(194,519,o),
(298,647,o),
(250,681,cs)
);
}
);
width = 600;
}
);
unicode = 75;
},
{
glyphname = L;
lastChange = "2024-04-19 02:32:44 +0000";
layers = (
{
layerId = m01;
shapes = (
{
closed = 1;
nodes = (
(143,467,o),
(167,233,o),
(190,0,c),
(277,0,o),
(363,0,o),
(450,0,c),
(394,37,o),
(338,75,o),
(282,112,c),
(228,308,o),
(174,504,o),
(120,700,c)
);
}
);
width = 600;
},
{
layerId = m002;
shapes = (
{
closed = 1;
nodes = (
(-30,521,o),
(-44,0,o),
(190,0,cs),
(277,0,o),
(363,0,o),
(450,0,cs),
(517,0,o),
(311,51,o),
(282,112,cs),
(195,296,o),
(251,856,o),
(120,700,cs)
);
}
);
width = 600;
},
{
layerId = m003;
shapes = (
{
closed = 1;
nodes = (
(-59,700,o),
(-36,92,o),
(181,12,cs),
(302,-32,o),
(509,0,o),
(551,55,cs),
(611,134,o),
(632,280,o),
(400,336,cs),
(224,378,o),
(488,700,o),
(173,700,cs)
);
}
);
width = 600;
}
);
unicode = 76;
},
{
glyphname = M;
lastChange = "2024-04-19 02:04:04 +0000";
layers = (
{
background = {
shapes = (
{
closed = 1;
nodes = (
(274,577,o),
(247,454,o),
(221,332,cs),
(197,221,o),
(174,111,o),
(150,0,c),
(200,99,o),
(250,198,o),
(300,297,c),
(350,198,o),
(400,99,o),
(450,0,c),
(425,116,o),
(400,232,o),
(375,348,cs),
(350,465,o),
(325,582,o),
(300,699,c)
);
},
{
closed = 1;
nodes = (
(303,396,o),
(303,394,o),
(291,385,cs),
(263,365,o),
(226,336,o),
(271,335,c),
(288,339,o),
(300,345,o),
(315,345,cs),
(331,345,o),
(325,341,o),
(339,335,c),
(350,335,o),
(382,335,o),
(336,374,cs),
(329,380,o),
(326,392,o),
(313,396,c)
);
}
);
};
layerId = m01;
shapes = (
{
closed = 1;
nodes = (
(169,233,o),
(189,467,o),
(208,700,c),
(238,627,o),
(269,554,o),
(299,481,c),
(329,554,o),
(360,627,o),
(390,700,c),
(410,467,o),
(430,233,o),
(450,0,c),
(423,133,o),
(397,222,o),
(370,355,c),
(342,300,o),
(334,289,o),
(300,234,c),
(269,284,o),
(261,300,o),
(230,355,c),
(203,222,o),
(177,133,o),
(150,0,c)
);
}
);
width = 600;
},
{
background = {
shapes = (
{
closed = 1;
nodes = (
(274,577,o),
(247,454,o),
(221,332,cs),
(197,221,o),
(174,111,o),
(150,0,c),
(200,99,o),
(250,198,o),
(300,297,c),
(350,198,o),
(400,99,o),
(450,0,c),
(425,116,o),
(400,232,o),
(375,348,cs),
(350,465,o),
(325,582,o),
(300,699,c)
);
},
{
closed = 1;
nodes = (
(303,396,o),
(303,394,o),
(291,385,cs),
(263,365,o),
(226,336,o),
(271,335,c),
(288,339,o),
(300,345,o),
(315,345,cs),
(331,345,o),
(325,341,o),
(339,335,c),
(350,335,o),
(382,335,o),
(336,374,cs),
(329,380,o),
(326,392,o),
(313,396,c)
);
}
);
};
layerId = m002;
shapes = (
{
closed = 1;
nodes = (
(131,233,o),
(-26,700,o),
(208,700,cs),
(287,700,o),
(220,481,o),
(299,481,cs),
(378,481,o),
(311,700,o),
(390,700,cs),
(624,700,o),
(466,233,o),
(450,0,cs),
(441,-135,o),
(506,400,o),
(370,400,cs),
(310,400,o),
(360,234,o),
(300,234,cs),
(240,234,o),
(290,400,o),
(230,400,cs),
(94,400,o),
(161,-135,o),
(150,0,cs)
);
}
);
width = 600;
},
{
background = {
shapes = (
{
closed = 1;
nodes = (
(274,577,o),
(247,454,o),
(221,332,cs),
(197,221,o),
(174,111,o),
(150,0,c),
(200,99,o),
(250,198,o),
(300,297,c),
(350,198,o),
(400,99,o),
(450,0,c),
(425,116,o),
(400,232,o),
(375,348,cs),
(350,465,o),
(325,582,o),
(300,699,c)
);
},
{
closed = 1;
nodes = (
(303,396,o),
(303,394,o),
(291,385,cs),
(263,365,o),
(226,336,o),
(271,335,c),
(288,339,o),
(300,345,o),
(315,345,cs),
(331,345,o),
(325,341,o),
(339,335,c),
(350,335,o),
(382,335,o),
(336,374,cs),
(329,380,o),
(326,392,o),
(313,396,c)
);
}
);
};
layerId = m003;
shapes = (
{
closed = 1;
nodes = (
(-56,-33,o),
(-11,705,o),
(136,700,cs),
(215,697,o),
(241,644,o),
(320,644,cs),
(399,644,o),
(401,700,o),
(480,700,cs),
(645,700,o),
(627,-6,o),
(459,2,cs),
(325,8,o),
(456,100,o),
(385,106,cs),
(301,113,o),
(357,39,o),
(297,39,cs),
(237,39,o),
(268,106,o),
(208,106,cs),
(136,106,o),
(220,19,o),
(120,0,cs)
);
}
);
width = 600;
}
);
unicode = 77;
},
{
glyphname = N;
lastChange = "2024-04-12 11:51:07 +0000";
layers = (
{
background = {
shapes = (
{
closed = 1;
nodes = (
(274,577,o),
(247,454,o),
(221,332,cs),
(197,221,o),
(174,111,o),
(150,0,c),
(200,99,o),
(250,198,o),
(300,297,c),
(350,198,o),
(400,99,o),
(450,0,c),
(425,116,o),
(400,232,o),
(375,348,cs),
(350,465,o),
(325,582,o),
(300,699,c)
);
},
{
closed = 1;
nodes = (
(303,396,o),
(303,394,o),
(291,385,cs),
(263,365,o),
(226,336,o),
(271,335,c),
(288,339,o),
(300,345,o),
(315,345,cs),
(331,345,o),
(325,341,o),
(339,335,c),
(350,335,o),
(382,335,o),
(336,374,cs),
(329,380,o),
(326,392,o),
(313,396,c)
);
}
);
};
layerId = m01;
shapes = (
{
closed = 1;
nodes = (
(187,50,o),
(224,99,o),
(261,149,c),
(302,99,o),
(343,50,o),
(384,0,c),
(406,233,o),
(428,467,o),
(450,700,c),
(413,545,o),
(375,389,o),
(338,234,c),
(312,323,o),
(286,411,o),
(260,500,c),
(223,333,o),
(187,167,o),
(150,0,c)
);
}
);
width = 600;
},
{
background = {
shapes = (
{
closed = 1;
nodes = (
(274,577,o),
(247,454,o),
(221,332,cs),
(197,221,o),
(174,111,o),
(150,0,c),
(200,99,o),
(250,198,o),
(300,297,c),
(350,198,o),
(400,99,o),
(450,0,c),
(425,116,o),
(400,232,o),
(375,348,cs),
(350,465,o),
(325,582,o),
(300,699,c)
);
},
{
closed = 1;
nodes = (
(303,396,o),
(303,394,o),
(291,385,cs),
(263,365,o),
(226,336,o),
(271,335,c),
(288,339,o),
(300,345,o),
(315,345,cs),
(331,345,o),
(325,341,o),
(339,335,c),
(350,335,o),
(382,335,o),
(336,374,cs),
(329,380,o),
(326,392,o),
(313,396,c)
);
}
);
};
layerId = m002;
shapes = (
{
closed = 1;
nodes = (
(150,-62,o),
(199,149,o),
(261,149,cs),
(326,149,o),
(319,0,o),
(384,0,cs),
(618,0,o),
(494,470,o),
(450,700,cs),
(420,856,o),
(497,234,o),
(338,234,cs),
(245,234,o),
(353,500,o),
(260,500,cs),
(89,500,o),
(150,171,o),
(150,0,cs)
);
}
);
width = 600;
},
{
background = {
shapes = (
{
closed = 1;
nodes = (
(274,577,o),
(247,454,o),
(221,332,cs),
(197,221,o),
(174,111,o),
(150,0,c),
(200,99,o),
(250,198,o),
(300,297,c),
(350,198,o),
(400,99,o),
(450,0,c),
(425,116,o),
(400,232,o),
(375,348,cs),
(350,465,o),
(325,582,o),
(300,699,c)
);
},
{
closed = 1;
nodes = (
(303,396,o),
(303,394,o),
(291,385,cs),
(263,365,o),
(226,336,o),
(271,335,c),
(288,339,o),
(300,345,o),
(315,345,cs),
(331,345,o),
(325,341,o),
(339,335,c),
(350,335,o),
(382,335,o),
(336,374,cs),
(329,380,o),
(326,392,o),
(313,396,c)
);
}
);
};
layerId = m003;
shapes = (
{
closed = 1;
nodes = (
(154,9,o),
(211,133,o),
(261,98,cs),
(331,48,o),
(440,0,o),
(505,0,cs),
(651,0,o),
(585,739,o),
(432,700,cs),
(308,668,o),
(484,582,o),
(325,582,cs),
(232,582,o),
(261,700,o),
(168,700,cs),
(35,700,o),
(-84,-25,o),
(93,0,cs)
);
}
);
width = 600;
}
);
unicode = 78;
},
{
glyphname = O;
lastChange = "2024-04-19 02:33:28 +0000";
layers = (
{
layerId = m01;
shapes = (
{
closed = 1;
nodes = (
(258,592,o),
(217,480,o),
(175,368,c),
(217,245,o),
(258,123,o),
(300,0,c),
(342,123,o),
(383,245,o),
(425,368,c),
(383,480,o),
(342,592,o),
(300,704,c)
);
},
{
closed = 1;
nodes = (
(323,332,o),
(334,343,o),
(334,357,cs),
(334,371,o),
(323,382,o),
(309,382,cs),
(295,382,o),
(284,371,o),
(284,357,cs),
(284,343,o),
(295,332,o),
(309,332,cs)
);
}
);
width = 600;
},
{
layerId = m002;
shapes = (
{
closed = 1;
nodes = (
(180,704,o),
(175,488,o),
(175,368,cs),
(175,238,o),
(170,0,o),
(300,0,cs),
(430,0,o),
(425,238,o),
(425,368,cs),
(425,488,o),
(420,704,o),
(300,704,cs)
);
},
{
closed = 1;
nodes = (
(323,332,o),
(334,343,o),
(334,357,cs),
(334,371,o),
(323,382,o),
(309,382,cs),
(295,382,o),
(284,371,o),
(284,357,cs),
(284,343,o),
(295,332,o),
(309,332,cs)
);
}
);
width = 600;
},
{
layerId = m003;
shapes = (
{
closed = 1;
nodes = (
(171,704,o),
(20,665,o),
(20,343,cs),
(20,76,o),
(150,0,o),
(300,0,cs),
(584,0,o),
(584,147,o),
(584,357,cs),
(584,503,o),
(555,704,o),
(300,704,cs)
);
},
{
closed = 1;
nodes = (
(474,125,o),
(452,282,o),
(452,357,cs),
(452,411,o),
(458,581,o),
(309,581,cs),
(260,581,o),
(140,554,o),
(140,357,cs),
(140,294,o),
(171,125,o),
(301,125,cs)
);
}
);
width = 600;
}
);
unicode = 79;
},
{
glyphname = P;
lastChange = "2024-04-19 02:33:44 +0000";
layers = (
{
layerId = m01;
shapes = (
{
closed = 1;
nodes = (
(143,233,o),
(168,467,o),
(193,700,c),
(279,633,o),
(364,567,o),
(450,500,c),
(378,464,o),
(306,428,o),
(234,392,c),
(195,261,o),
(157,131,o),
(118,0,c)
);
},
{
closed = 1;
nodes = (
(267,482,o),
(256,493,o),
(256,507,cs),
(256,521,o),
(267,532,o),
(281,532,cs),
(295,532,o),
(306,521,o),
(306,507,cs),
(306,493,o),
(295,482,o),
(281,482,cs)
);
}
);
width = 600;
},
{
layerId = m002;
shapes = (
{
closed = 1;
nodes = (
(86,232,o),
(-41,700,o),
(193,700,cs),
(302,700,o),
(450,609,o),
(450,500,cs),
(450,420,o),
(279,459,o),
(234,392,cs),
(158,278,o),
(137,-135,o),
(118,0,cs)
);
},
{
closed = 1;
nodes = (
(267,482,o),
(256,493,o),
(256,507,cs),
(256,521,o),
(267,532,o),
(281,532,cs),
(295,532,o),
(306,521,o),
(306,507,cs),
(306,493,o),
(295,482,o),
(281,482,cs)
);
}
);
width = 600;
},
{
layerId = m003;
shapes = (
{
closed = 1;
nodes = (
(-44,15,o),
(-32,650,o),
(203,693,cs),
(369,723,o),
(593,695,o),
(593,500,cs),
(593,420,o),
(496,375,o),
(451,308,cs),
(358,170,o),
(785,-36,o),
(202,0,cs)
);
},
{
closed = 1;
nodes = (
(156,456,o),
(110,399,o),
(150,523,cs),
(180,616,o),
(304,654,o),
(398,614,cs),
(533,557,o),
(504,478,o),
(488,454,cs),
(430,374,o),
(268,427,o),
(265,428,cs)
);
}
);
width = 600;
}
);
unicode = 80;
},
{
glyphname = Q;
lastChange = "2024-04-19 02:33:52 +0000";
layers = (
{
layerId = m01;
shapes = (
{
closed = 1;
nodes = (
(258,596,o),
(217,493,o),
(175,389,c),
(217,259,o),
(258,130,o),
(300,0,c),
(317,47,o),
(333,95,o),
(350,142,c),
(383,123,o),
(417,105,o),
(450,86,c),
(424,125,o),
(398,163,o),
(372,202,c),
(390,269,o),
(407,336,o),
(425,403,c),
(383,502,o),
(342,601,o),
(300,700,c)
);
},
{
closed = 1;
nodes = (
(321,356,o),
(332,367,o),
(332,381,cs),
(332,395,o),
(321,406,o),
(307,406,cs),
(293,406,o),
(282,395,o),
(282,381,cs),
(282,367,o),
(293,356,o),
(307,356,cs)
);
}
);
width = 600;
},
{
layerId = m002;
shapes = (
{
closed = 1;
nodes = (
(188,700,o),
(175,501,o),
(175,389,cs),
(175,252,o),
(163,0,o),
(300,0,cs),
(350,0,o),
(300,142,o),
(350,142,cs),
(388,142,o),
(437,50,o),
(450,86,cs),
(465,130,o),
(372,155,o),
(372,202,cs),
(372,271,o),
(425,334,o),
(425,403,cs),
(425,511,o),
(408,700,o),
(300,700,cs)
);
},
{
closed = 1;
nodes = (
(321,356,o),
(332,367,o),
(332,381,cs),
(332,395,o),
(321,406,o),
(307,406,cs),
(293,406,o),
(282,395,o),
(282,381,cs),
(282,367,o),
(293,356,o),
(307,356,cs)
);
}
);
width = 600;
},
{
layerId = m003;
shapes = (
{
closed = 1;
nodes = (
(187,700,o),
(12,664,o),
(12,389,cs),
(12,154,o),
(134,0,o),
(300,0,cs),
(392,0,o),
(437,50,o),
(459,50,cs),
(512,50,o),
(526,6,o),
(563,6,cs),
(659,6,o),
(535,79,o),
(535,125,cs),
(535,152,o),
(602,181,o),
(585,395,cs),
(570,585,o),
(416,700,o),
(300,700,cs)
);
},
{
closed = 1;
nodes = (
(494,132,o),
(481,264,o),
(481,370,cs),
(481,382,o),
(440,585,o),
(279,585,cs),
(181,585,o),
(122,515,o),
(122,335,cs),
(122,173,o),
(253,132,o),
(307,132,cs)
);
}
);
width = 600;
}
);
unicode = 81;
},
{
glyphname = R;
lastChange = "2024-04-19 02:34:43 +0000";
layers = (
{
layerId = m01;
shapes = (
{
closed = 1;
nodes = (
(205,467,o),
(178,233,o),
(150,0,c),
(183,74,o),
(215,149,o),
(248,223,c),
(315,149,o),
(383,74,o),
(450,0,c),
(397,112,o),
(344,224,o),
(291,336,c),
(329,402,o),
(366,468,o),
(404,534,c),
(347,589,o),
(290,645,o),
(233,700,c)
);
},
{
closed = 1;
nodes = (
(299,475,o),
(310,486,o),
(310,500,cs),
(310,514,o),
(299,525,o),
(285,525,cs),
(271,525,o),
(260,514,o),
(260,500,cs),
(260,486,o),
(271,475,o),
(285,475,cs)
);
}
);
width = 600;
},
{
layerId = m002;
shapes = (
{
closed = 1;
nodes = (
(64,863,o),
(143,235,o),
(150,0,cs),
(153,-81,o),
(167,223,o),
(248,223,cs),
(348,223,o),
(415,-94,o),
(450,0,cs),
(493,116,o),
(291,212,o),
(291,336,cs),
(291,412,o),
(404,458,o),
(404,534,cs),
(404,613,o),
(290,645,o),
(233,700,cs)
);
},
{
closed = 1;
nodes = (
(299,475,o),
(310,486,o),
(310,500,cs),
(310,514,o),
(299,525,o),
(285,525,cs),
(271,525,o),
(260,514,o),
(260,500,cs),
(260,486,o),
(271,475,o),
(285,475,cs)
);
}
);
width = 600;
},
{
layerId = m003;
shapes = (
{
closed = 1;
nodes = (
(-41,687,o),
(-49,-38,o),
(150,0,cs),
(251,19,o),
(240,107,o),
(321,107,cs),
(421,107,o),
(320,0,o),
(421,0,cs),
(680,0,o),
(550,102,o),
(512,291,cs),
(498,360,o),
(566,365,o),
(585,484,cs),
(597,553,o),
(621,711,o),
(320,700,cs)
);
},
{
closed = 1;
nodes = (
(528,381,o),
(521,519,o),
(510,538,cs),
(497,561,o),
(448,619,o),
(306,619,cs),
(218,619,o),
(172,532,o),
(165,499,cs),
(136,360,o),
(148,381,o),
(382,381,cs)
);
}
);
width = 600;
}
);
unicode = 82;
},
{
glyphname = S;
lastChange = "2024-04-19 02:35:14 +0000";
layers = (
{
layerId = m01;
shapes = (
{
closed = 1;
nodes = (
(250,0,o),
(350,0,o),
(450,0,c),
(387,188,o),
(324,376,o),
(261,564,c),
(310,557,o),
(360,550,o),
(409,543,c),
(335,597,o),
(261,650,o),
(187,704,c),
(212,560,o),
(236,416,o),
(261,272,c),
(224,181,o),
(187,91,o),
(150,0,c)
);
}
);
width = 600;
},
{
layerId = m002;
shapes = (
{
closed = 1;
nodes = (
(250,0,o),
(350,0,o),
(450,0,cs),
(648,0,o),
(276,366,o),
(261,564,cs),
(257,613,o),
(432,499,o),
(409,543,cs),
(366,624,o),
(231,784,o),
(187,704,cs),
(117,576,o),
(261,418,o),
(261,272,cs),
(261,174,o),
(52,0,o),
(150,0,cs)
);
}
);
width = 600;
},
{
layerId = m003;
shapes = (
{
closed = 1;
nodes = (
(126,-23,o),
(350,0,o),
(450,0,cs),
(690,0,o),
(578,320,o),
(437,400,cs),
(389,427,o),
(622,493,o),
(592,580,cs),
(556,684,o),
(184,759,o),
(86,673,cs),
(-119,493,o),
(126,349,o),
(126,211,cs),
(126,113,o),
(-76,158,o),
(39,55,cs)
);
}
);
width = 600;
}
);
unicode = 83;
},
{
glyphname = T;
lastChange = "2024-04-12 12:07:40 +0000";
layers = (
{
layerId = m01;
shapes = (
{
closed = 1;
nodes = (
(240,663,o),
(179,625,o),
(119,588,c),
(159,584,o),
(200,581,o),
(240,577,c),
(260,385,o),
(281,192,o),
(301,0,c),
(322,192,o),
(342,385,o),
(363,577,c),
(408,581,o),
(452,585,o),
(497,589,c),
(431,626,o),
(366,663,o),
(300,700,c)
);
}
);
width = 600;
},
{
layerId = m002;
shapes = (
{
closed = 1;
nodes = (
(230,700,o),
(119,658,o),
(119,588,cs),
(119,548,o),
(228,615,o),
(240,577,cs),
(297,392,o),
(108,0,o),
(301,0,cs),
(494,0,o),
(301,394,o),
(363,577,cs),
(377,620,o),
(497,544,o),
(497,589,cs),
(497,665,o),
(376,700,o),
(300,700,cs)
);
}
);
width = 600;
},
{
layerId = m003;
shapes = (
{
closed = 1;
nodes = (
(176,700,o),
(13,703,o),
(13,574,cs),
(13,441,o),
(95,489,o),
(121,465,cs),
(215,378,o),
(-199,0,o),
(301,0,cs),
(832,0,o),
(381,326,o),
(480,459,cs),
(507,495,o),
(593,432,o),
(586,601,cs),
(583,677,o),
(376,700,o),
(300,700,cs)
);
}
);
width = 600;
}
);
unicode = 84;
},
{
glyphname = U;
lastChange = "2024-04-12 12:04:02 +0000";
layers = (
{
layerId = m01;
shapes = (
{
closed = 1;
nodes = (
(200,560,o),
(250,419,o),
(300,279,c),
(350,420,o),
(400,560,o),
(450,701,c),
(450,574,o),
(450,446,o),
(450,319,c),
(400,215,o),
(350,112,o),
(300,8,c),
(250,112,o),
(200,215,o),
(150,319,c),
(150,446,o),
(150,573,o),
(150,700,c)
);
}
);
width = 600;
},
{
layerId = m002;
shapes = (
{
closed = 1;
nodes = (
(150,849,o),
(151,279,o),
(300,279,cs),
(450,279,o),
(450,851,o),
(450,701,cs),
(450,574,o),
(450,446,o),
(450,319,cs),
(450,204,o),
(415,8,o),
(300,8,cs),
(185,8,o),
(150,204,o),
(150,319,cs),
(150,446,o),
(150,573,o),
(150,700,cs)
);
}
);
width = 600;
},
{
layerId = m003;
shapes = (
{
closed = 1;
nodes = (
(301,700,o),
(172,598,o),
(321,598,cs),
(471,598,o),
(336,698,o),
(450,701,cs),
(577,704,o),
(584,406,o),
(584,279,cs),
(584,116,o),
(521,8,o),
(300,8,cs),
(130,8,o),
(19,134,o),
(19,304,cs),
(19,431,o),
(-10,700,o),
(150,700,cs)
);
}
);
width = 600;
}
);
unicode = 85;
},
{
glyphname = V;
lastChange = "2024-04-12 12:04:23 +0000";
layers = (
{
layerId = m01;
shapes = (
{
closed = 1;
nodes = (
(200,467,o),
(250,234,o),
(300,0,c),
(350,235,o),
(400,469,o),
(450,704,c),
(400,636,o),
(350,568,o),
(300,500,c),
(250,567,o),
(200,634,o),
(150,701,c)
);
}
);
width = 600;
},
{
layerId = m002;
shapes = (
{
closed = 1;
nodes = (
(150,462,o),
(61,0,o),
(300,0,cs),
(540,0,o),
(450,464,o),
(450,704,cs),
(450,788,o),
(384,500,o),
(300,500,cs),
(216,500,o),
(150,785,o),
(150,701,cs)
);
}
);
width = 600;
},
{
layerId = m003;
shapes = (
{
closed = 1;
nodes = (
(-118,708,o),
(34,0,o),
(300,0,cs),
(579,0,o),
(710,718,o),
(450,704,cs),
(379,700,o),
(415,614,o),
(331,614,cs),
(224,614,o),
(311,697,o),
(150,701,cs)
);
}
);
width = 600;
}
);
unicode = 86;
},
{
glyphname = W;
lastChange = "2024-04-12 17:35:30 +0000";
layers = (
{
background = {
shapes = (
{
closed = 1;
nodes = (
(274,577,o),
(247,454,o),
(221,332,cs),
(197,221,o),
(174,111,o),
(150,0,c),
(200,99,o),
(250,198,o),
(300,297,c),
(350,198,o),
(400,99,o),
(450,0,c),
(425,116,o),
(400,232,o),
(375,348,cs),
(350,465,o),
(325,582,o),
(300,699,c)
);
},
{
closed = 1;
nodes = (
(303,396,o),
(303,394,o),
(291,385,cs),
(263,365,o),
(226,336,o),
(271,335,c),
(288,339,o),
(300,345,o),
(315,345,cs),
(331,345,o),
(325,341,o),
(339,335,c),
(350,335,o),
(382,335,o),
(336,374,cs),
(329,380,o),
(326,392,o),
(313,396,c)
);
}
);
};
layerId = m01;
shapes = (
{
closed = 1;
nodes = (
(177,467,o),
(203,233,o),
(230,0,c),
(253,99,o),
(277,286,o),
(300,385,c),
(323,286,o),
(347,99,o),
(370,0,c),
(397,233,o),
(423,467,o),
(450,700,c),
(400,648,o),
(350,596,o),
(300,544,c),
(250,596,o),
(200,648,o),
(150,700,c)
);
}
);
width = 600;
},
{
layerId = m002;
shapes = (
{
closed = 1;
nodes = (
(120,467,o),
(-5,0,o),
(230,0,cs),
(332,0,o),
(198,385,o),
(300,385,cs),
(402,385,o),
(268,0,o),
(370,0,cs),
(605,0,o),
(613,869,o),
(450,700,cs),
(400,648,o),
(350,596,o),
(300,544,cs),
(250,492,o),
(159,772,o),
(150,700,cs)
);
}
);
width = 600;
},
{
layerId = m003;
shapes = (
{
closed = 1;
nodes = (
(21,654,o),
(-92,0,o),
(143,0,cs),
(245,0,o),
(244,81,o),
(346,81,cs),
(448,81,o),
(346,0,o),
(448,0,cs),
(748,0,o),
(480,830,o),
(450,700,cs),
(373,367,o),
(313,656,o),
(230,446,cs),
(205,381,o),
(222,726,o),
(150,700,cs)
);
}
);
width = 600;
}
);
unicode = 87;
},
{
glyphname = X;
lastChange = "2024-04-12 11:58:26 +0000";
layers = (
{
layerId = m01;
shapes = (
{
closed = 1;
nodes = (
(185,595,o),
(221,489,o),
(256,384,c),
(221,256,o),
(185,128,o),
(150,0,c),
(200,71,o),
(250,143,o),
(300,214,c),
(350,143,o),
(400,71,o),
(450,0,c),
(413,128,o),
(376,256,o),
(339,384,c),
(376,489,o),
(413,595,o),
(450,700,c),
(400,650,o),
(349,600,o),
(299,550,c),
(249,600,o),
(200,650,o),
(150,700,c)
);
}
);
width = 600;
},
{
layerId = m002;
shapes = (
{
closed = 1;
nodes = (
(121,593,o),
(256,495,o),
(256,384,cs),
(256,251,o),
(116,128,o),
(150,0,cs),
(172,-84,o),
(213,214,o),
(300,214,cs),
(387,214,o),
(431,-85,o),
(450,0,cs),
(480,130,o),
(339,251,o),
(339,384,cs),
(339,495,o),
(529,779,o),
(450,700,cs),
(400,650,o),
(349,600,o),
(299,550,cs),
(249,500,o),
(169,768,o),
(150,700,cs)
);
}
);
width = 600;
},
{
layerId = m003;
shapes = (
{
closed = 1;
nodes = (
(-66,683,o),
(114,495,o),
(114,384,cs),
(114,251,o),
(-151,-28,o),
(150,0,cs),
(315,15,o),
(238,89,o),
(338,89,cs),
(454,89,o),
(344,-25,o),
(527,0,cs),
(685,21,o),
(505,268,o),
(505,384,cs),
(505,495,o),
(742,728,o),
(450,700,cs),
(382,693,o),
(502,616,o),
(338,616,cs),
(270,616,o),
(292,725,o),
(45,696,cs)
);
}
);
width = 600;
}
);
unicode = 88;
},
{
glyphname = Y;
lastChange = "2024-04-12 11:56:26 +0000";
layers = (
{
layerId = m01;
shapes = (
{
closed = 1;
nodes = (
(146,613,o),
(201,525,o),
(257,438,c),
(271,292,o),
(286,146,o),
(300,0,c),
(311,146,o),
(323,292,o),
(334,438,c),
(394,525,o),
(453,613,o),
(513,700,c),
(442,648,o),
(371,596,o),
(300,544,c),
(230,596,o),
(160,648,o),
(90,700,c)
);
}
);
width = 600;
},
{
layerId = m002;
shapes = (
{
closed = 1;
nodes = (
(52,604,o),
(227,537,o),
(257,438,cs),
(299,298,o),
(153,0,o),
(300,0,cs),
(446,0,o),
(291,298,o),
(334,438,cs),
(365,539,o),
(545,599,o),
(513,700,cs),
(487,784,o),
(388,544,o),
(300,544,cs),
(213,544,o),
(122,781,o),
(90,700,cs)
);
}
);
width = 600;
},
{
layerId = m003;
shapes = (
{
closed = 1;
nodes = (
(-44,666,o),
(80,398,o),
(98,339,cs),
(155,147,o),
(-131,0,o),
(317,0,cs),
(718,0,o),
(447,215,o),
(495,370,cs),
(524,465,o),
(645,650,o),
(570,677,cs),
(385,745,o),
(443,610,o),
(355,610,cs),
(268,610,o),
(228,755,o),
(29,690,cs)
);
}
);
width = 600;
}
);
unicode = 89;
},
{
glyphname = Z;
lastChange = "2024-04-12 17:27:17 +0000";
layers = (
{
background = {
shapes = (
{
closed = 1;
nodes = (
(274,577,o),
(247,454,o),
(221,332,cs),
(197,221,o),
(174,111,o),
(150,0,c),
(200,99,o),
(250,198,o),
(300,297,c),
(350,198,o),
(400,99,o),
(450,0,c),
(425,116,o),
(400,232,o),
(375,348,cs),
(350,465,o),
(325,582,o),
(300,699,c)
);
},
{
closed = 1;
nodes = (
(303,396,o),
(303,394,o),
(291,385,cs),
(263,365,o),
(226,336,o),
(271,335,c),
(288,339,o),
(300,345,o),
(315,345,cs),
(331,345,o),
(325,341,o),
(339,335,c),
(350,335,o),
(382,335,o),
(336,374,cs),
(329,380,o),
(326,392,o),
(313,396,c)
);
}
);
};
layerId = m01;
shapes = (
{
closed = 1;
nodes = (
(215,700,o),
(325,700,o),
(436,700,c),
(383,537,o),
(331,375,o),
(278,212,c),
(335,141,o),
(393,71,o),
(450,0,c),
(350,0,o),
(250,0,o),
(150,0,c),
(175,118,o),
(201,236,o),
(226,354,cs),
(242,428,o),
(258,503,o),
(274,577,c),
(217,618,o),
(161,659,o),
(104,700,c)
);
}
);
width = 600;
},
{
background = {
shapes = (
{
closed = 1;
nodes = (
(274,577,o),
(247,454,o),
(221,332,cs),
(197,221,o),
(174,111,o),
(150,0,c),
(200,99,o),
(250,198,o),
(300,297,c),
(350,198,o),
(400,99,o),
(450,0,c),
(425,116,o),
(400,232,o),
(375,348,cs),
(350,465,o),
(325,582,o),
(300,699,c)
);
},
{
closed = 1;
nodes = (
(303,396,o),
(303,394,o),
(291,385,cs),
(263,365,o),
(226,336,o),
(271,335,c),
(288,339,o),
(300,345,o),
(315,345,cs),
(331,345,o),
(325,341,o),
(339,335,c),
(350,335,o),
(382,335,o),
(336,374,cs),
(329,380,o),
(326,392,o),
(313,396,c)
);
}
);
};
layerId = m002;
shapes = (
{
closed = 1;
nodes = (
(215,700,o),
(325,700,o),
(436,700,cs),
(607,700,o),
(278,383,o),
(278,212,cs),
(278,121,o),
(541,0,o),
(450,0,cs),
(350,0,o),
(250,0,o),
(150,0,cs),
(29,0,o),
(201,236,o),
(226,354,cs),
(242,428,o),
(274,501,o),
(274,577,cs),
(274,647,o),
(34,700,o),
(104,700,cs)
);
}
);
width = 600;
},
{
background = {
shapes = (
{
closed = 1;
nodes = (
(274,577,o),
(247,454,o),
(221,332,cs),
(197,221,o),
(174,111,o),
(150,0,c),
(200,99,o),
(250,198,o),
(300,297,c),
(350,198,o),
(400,99,o),
(450,0,c),
(425,116,o),
(400,232,o),
(375,348,cs),
(350,465,o),
(325,582,o),
(300,699,c)
);
},
{
closed = 1;
nodes = (
(303,396,o),
(303,394,o),
(291,385,cs),
(263,365,o),
(226,336,o),
(271,335,c),
(288,339,o),
(300,345,o),
(315,345,cs),
(331,345,o),
(325,341,o),
(339,335,c),
(350,335,o),
(382,335,o),
(336,374,cs),
(329,380,o),
(326,392,o),
(313,396,c)
);
}
);
};
layerId = m003;
shapes = (
{
closed = 1;
nodes = (
(145,700,o),
(325,700,o),
(436,700,cs),
(746,700,o),
(488,383,o),
(488,212,cs),
(488,116,o),
(691,0,o),
(541,0,cs),
(441,0,o),
(176,0,o),
(77,0,cs),
(-37,0,o),
(8,261,o),
(77,377,cs),
(135,475,o),
(181,536,o),
(115,560,cs),
(26,592,o),
(-35,700,o),
(34,700,cs)
);
}
);
width = 600;
}
);
unicode = 90;
},
{
glyphname = zero;
lastChange = "2024-04-19 02:18:06 +0000";
layers = (
{
layerId = m01;
shapes = (
{
closed = 1;
nodes = (
(267,653,o),
(233,607,o),
(200,560,c),
(200,428,o),
(200,297,o),
(200,165,c),
(233,110,o),
(267,55,o),
(300,0,c),
(333,55,o),
(367,110,o),
(400,165,c),
(400,297,o),
(400,428,o),
(400,560,c),
(367,607,o),
(333,653,o),
(300,700,c)
);
}
);
width = 600;
},
{
layerId = m002;
shapes = (
{
closed = 1;
nodes = (
(243,700,o),
(200,617,o),
(200,560,cs),
(200,428,o),
(200,297,o),
(200,165,cs),
(200,101,o),
(236,0,o),
(300,0,cs),
(364,0,o),
(400,101,o),
(400,165,cs),
(400,297,o),
(400,428,o),
(400,560,cs),
(400,617,o),
(357,700,o),
(300,700,cs)
);
}
);
width = 600;
},
{
layerId = m003;
shapes = (
{
closed = 1;
nodes = (
(228,700,o),
(142,692,o),
(84,541,cs),
(45,440,o),
(37,208,o),
(89,124,cs),
(117,79,o),
(169,0,o),
(300,0,cs),
(311,0,o),
(445,-11,o),
(498,159,cs),
(529,261,o),
(544,495,o),
(500,582,cs),
(478,626,o),
(440,700,o),
(300,700,cs)
);
}
);
width = 600;
}
);
unicode = 48;
},
{
glyphname = one;
lastChange = "2024-04-12 17:46:19 +0000";
layers = (
{
layerId = m01;
shapes = (
{
closed = 1;
nodes = (
(257,640,o),
(204,580,o),
(150,520,c),
(186,526,o),
(221,531,o),
(257,537,c),
(305,358,o),
(352,179,o),
(400,0,c),
(370,233,o),
(341,467,o),
(311,700,c)
);
}
);
width = 600;
},
{
layerId = m002;
shapes = (
{
closed = 1;
nodes = (
(230,700,o),
(176,597,o),
(150,520,cs),
(138,485,o),
(248,572,o),
(257,537,cs),
(305,358,o),
(341,-176,o),
(400,0,cs),
(474,223,o),
(546,700,o),
(311,700,cs)
);
}
);
width = 600;
},
{
layerId = m003;
shapes = (
{
closed = 1;
nodes = (
(208,700,o),
(27,577,o),
(53,475,cs),
(62,440,o),
(143,503,o),
(172,470,cs),
(220,415,o),
(-288,-32,o),
(400,0,cs),
(647,12,o),
(601,700,o),
(363,700,cs)
);
}
);
width = 600;
}
);
unicode = 49;
},
{
glyphname = two;
lastChange = "2024-04-12 16:58:46 +0000";
layers = (
{
layerId = m01;
shapes = (
{
closed = 1;
nodes = (
(287,624,o),
(219,549,o),
(150,473,c),
(189,487,o),
(228,502,o),
(267,516,c),
(228,344,o),
(189,172,o),
(150,0,c),
(250,0,o),
(350,0,o),
(450,0,c),
(399,48,o),
(349,97,o),
(298,145,c),
(317,330,o),
(337,515,o),
(356,700,c)
);
}
);
width = 600;
},
{
layerId = m002;
shapes = (
{
closed = 1;
nodes = (
(313,793,o),
(195,565,o),
(150,473,cs),
(132,436,o),
(267,557,o),
(267,516,cs),
(267,340,o),
(-26,0,o),
(150,0,cs),
(250,0,o),
(350,0,o),
(450,0,cs),
(520,0,o),
(349,97,o),
(298,145,cs),
(163,272,o),
(434,531,o),
(356,700,cs)
);
}
);
width = 600;
},
{
layerId = m003;
shapes = (
{
closed = 1;
nodes = (
(160,752,o),
(-58,605,o),
(28,482,cs),
(47,455,o),
(157,503,o),
(157,442,cs),
(157,388,o),
(-188,0,o),
(150,0,cs),
(250,0,o),
(452,0,o),
(552,0,cs),
(622,0,o),
(593,128,o),
(542,176,cs),
(477,237,o),
(776,587,o),
(356,700,cs)
);
}
);
width = 600;
}
);
unicode = 50;
},
{
glyphname = three;
lastChange = "2024-04-12 17:00:08 +0000";
layers = (
{
layerId = m01;
shapes = (
{
closed = 1;
nodes = (
(411,491,o),
(321,595,o),
(230,700,c),
(258,604,o),
(285,508,o),
(313,412,c),
(274,389,o),
(235,366,o),
(196,343,c),
(235,333,o),
(274,322,o),
(313,312,c),
(196,0,l),
(298,129,o),
(400,257,o),
(502,386,c)
);
}
);
width = 600;
},
{
layerId = m002;
shapes = (
{
closed = 1;
nodes = (
(502,525,o),
(368,680,o),
(230,700,cs),
(131,714,o),
(313,512,o),
(313,412,cs),
(313,367,o),
(196,388,o),
(196,343,cs),
(196,303,o),
(327,350,o),
(313,312,cs),
(196,0,ls),
(138,-154,o),
(502,222,o),
(502,386,cs)
);
}
);
width = 600;
},
{
layerId = m003;
shapes = (
{
closed = 1;
nodes = (
(585,592,o),
(302,810,o),
(78,646,cs),
(-21,574,o),
(187,545,o),
(187,445,cs),
(187,400,o),
(30,388,o),
(30,343,cs),
(30,303,o),
(241,290,o),
(201,234,cs),
(100,91,ls),
(16,-28,o),
(585,-132,o),
(585,350,cs)
);
}
);
width = 600;
}
);
unicode = 51;
},
{
glyphname = four;
lastChange = "2024-04-12 17:45:23 +0000";
layers = (
{
layerId = m01;
shapes = (
{
closed = 1;
nodes = (
(192,538,o),
(204,447,o),
(217,356,c),
(253,394,o),
(289,431,o),
(325,469,c),
(338,309,o),
(352,148,o),
(365,-12,c),
(384,225,o),
(403,463,o),
(422,700,c),
(369,642,o),
(316,584,o),
(263,526,c),
(235,560,o),
(207,595,o),
(179,629,c)
);
}
);
width = 600;
},
{
layerId = m002;
shapes = (
{
closed = 1;
nodes = (
(156,540,o),
(154,289,o),
(217,356,cs),
(253,394,o),
(289,431,o),
(325,469,cs),
(435,586,o),
(204,-12,o),
(365,-12,cs),
(603,-12,o),
(466,466,o),
(422,700,cs),
(407,777,o),
(342,526,o),
(263,526,cs),
(219,526,o),
(190,672,o),
(179,629,cs)
);
}
);
width = 600;
},
{
layerId = m003;
shapes = (
{
closed = 1;
nodes = (
(-73,648,o),
(36,264,o),
(154,289,cs),
(200,299,o),
(233,375,o),
(280,354,cs),
(322,335,o),
(84,-12,o),
(365,-12,cs),
(633,-12,o),
(667,777,o),
(422,700,cs),
(321,668,o),
(281,586,o),
(202,586,cs),
(143,586,o),
(189,648,o),
(155,648,cs)
);
}
);
width = 600;
}
);
unicode = 52;
},
{
glyphname = five;
lastChange = "2024-04-19 02:35:53 +0000";
layers = (
{
layerId = m01;
shapes = (
{
closed = 1;
nodes = (
(202,201,o),
(254,100,o),
(306,0,c),
(354,94,o),
(402,188,o),
(450,282,c),
(406,377,o),
(362,472,o),
(318,567,c),
(371,583,o),
(423,600,o),
(476,616,c),
(384,644,o),
(291,671,o),
(199,699,c),
(233,566,o),
(266,434,o),
(300,301,c),
(250,301,o),
(200,301,o),
(150,301,c)
);
}
);
width = 600;
},
{
layerId = m002;
shapes = (
{
closed = 1;
nodes = (
(37,301,o),
(193,0,o),
(306,0,cs),
(412,0,o),
(450,176,o),
(450,282,cs),
(450,387,o),
(318,462,o),
(318,567,cs),
(318,622,o),
(476,561,o),
(476,616,cs),
(476,712,o),
(245,783,o),
(199,699,cs),
(133,579,o),
(437,301,o),
(300,301,cs),
(250,301,o),
(200,301,o),
(150,301,cs)
);
}
);
width = 600;
},
{
layerId = m003;
shapes = (
{
closed = 1;
nodes = (
(-97,301,o),
(126,11,o),
(306,0,cs),
(496,-12,o),
(583,42,o),
(583,262,cs),
(583,367,o),
(479,432,o),
(479,537,cs),
(479,592,o),
(582,561,o),
(582,616,cs),
(582,712,o),
(143,731,o),
(70,647,cs),
(-137,408,o),
(272,377,o),
(272,337,cs),
(272,290,o),
(110,301,o),
(60,301,cs)
);
}
);
width = 600;
}
);
unicode = 53;
},
{
glyphname = six;
lastChange = "2024-04-19 01:55:25 +0000";
layers = (
{
layerId = m01;
shapes = (
{
closed = 1;
nodes = (
(222,467,o),
(256,233,o),
(290,0,c),
(351,109,o),
(412,217,o),
(473,326,c),
(423,326,o),
(372,326,o),
(322,326,c),
(277,451,o),
(233,575,o),
(188,700,c)
);
},
{
closed = 1;
nodes = (
(351,197,o),
(362,208,o),
(362,222,cs),
(362,236,o),
(351,247,o),
(337,247,cs),
(323,247,o),
(312,236,o),
(312,222,cs),
(312,208,o),
(323,197,o),
(337,197,cs)
);
}
);
width = 600;
},
{
layerId = m002;
shapes = (
{
closed = 1;
nodes = (
(164,466,o),
(55,0,o),
(290,0,cs),
(415,0,o),
(598,326,o),
(473,326,cs),
(423,326,o),
(372,326,o),
(322,326,cs),
(189,326,o),
(201,832,o),
(188,700,cs)
);
},
{
closed = 1;
nodes = (
(351,197,o),
(362,208,o),
(362,222,cs),
(362,236,o),
(351,247,o),
(337,247,cs),
(323,247,o),
(312,236,o),
(312,222,cs),
(312,208,o),
(323,197,o),
(337,197,cs)
);
}
);
width = 600;
},
{
layerId = m003;
shapes = (
{
closed = 1;
nodes = (
(87,751,o),
(-221,0,o),
(290,0,cs),
(501,0,o),
(634,213,o),
(539,377,cs),
(511,425,o),
(479,452,o),
(400,452,cs),
(302,452,o),
(578,625,o),
(288,700,cs)
);
},
{
closed = 1;
nodes = (
(455,103,o),
(475,240,o),
(475,255,cs),
(475,275,o),
(466,373,o),
(337,373,cs),
(233,373,o),
(98,354,o),
(98,222,cs),
(98,135,o),
(194,50,o),
(316,75,cs)
);
}
);
width = 600;
}
);
unicode = 54;
},
{
glyphname = seven;
lastChange = "2024-04-12 17:17:54 +0000";
layers = (
{
layerId = m01;
shapes = (
{
closed = 1;
nodes = (
(244,700,o),
(348,700,o),
(451,700,c),
(378,467,o),
(306,233,o),
(233,0,c),
(254,195,o),
(276,391,o),
(297,586,c),
(245,624,o),
(193,662,o),
(141,700,c)
);
}
);
width = 600;
},
{
layerId = m002;
shapes = (
{
closed = 1;
nodes = (
(244,700,o),
(348,700,o),
(451,700,cs),
(695,700,o),
(430,144,o),
(233,0,cs),
(75,-116,o),
(297,390,o),
(297,586,cs),
(297,650,o),
(77,700,o),
(141,700,cs)
);
}
);
width = 600;
},
{
layerId = m003;
shapes = (
{
closed = 1;
nodes = (
(40,706,o),
(361,723,o),
(451,700,cs),
(688,640,o),
(626,-55,o),
(233,0,cs),
(-74,44,o),
(142,280,o),
(142,482,cs),
(142,532,o),
(-47,519,o),
(14,650,cs)
);
}
);
width = 600;
}
);
unicode = 55;
},
{
glyphname = eight;
lastChange = "2024-04-19 02:07:03 +0000";
layers = (
{
layerId = m01;
shapes = (
{
closed = 1;
nodes = (
(267,653,o),
(233,602,o),
(200,551,c),
(217,500,o),
(233,448,o),
(250,397,c),
(230,323,o),
(210,248,o),
(190,174,c),
(227,116,o),
(263,58,o),
(300,0,c),
(337,58,o),
(373,116,o),
(410,174,c),
(390,248,o),
(370,323,o),
(350,397,c),
(367,448,o),
(383,500,o),
(400,551,c),
(367,602,o),
(333,653,o),
(300,704,c)
);
},
{
closed = 1;
nodes = (
(318,486,o),
(329,497,o),
(329,511,cs),
(329,525,o),
(318,536,o),
(304,536,cs),
(290,536,o),
(279,525,o),
(279,511,cs),
(279,497,o),
(290,486,o),
(304,486,cs)
);
},
{
closed = 1;
nodes = (
(318,178,o),
(329,189,o),
(329,203,cs),
(329,217,o),
(318,228,o),
(304,228,cs),
(290,228,o),
(279,217,o),
(279,203,cs),
(279,189,o),
(290,178,o),
(304,178,cs)
);
}
);
width = 600;
},
{
layerId = m002;
shapes = (
{
closed = 1;
nodes = (
(239,704,o),
(200,612,o),
(200,551,cs),
(200,497,o),
(250,451,o),
(250,397,cs),
(250,320,o),
(190,251,o),
(190,174,cs),
(190,105,o),
(231,0,o),
(300,0,cs),
(369,0,o),
(410,105,o),
(410,174,cs),
(410,251,o),
(350,320,o),
(350,397,cs),
(350,451,o),
(400,497,o),
(400,551,cs),
(400,612,o),
(361,704,o),
(300,704,cs)
);
},
{
closed = 1;
nodes = (
(318,486,o),
(329,497,o),
(329,511,cs),
(329,525,o),
(318,536,o),
(304,536,cs),
(290,536,o),
(279,525,o),
(279,511,cs),
(279,497,o),
(290,486,o),
(304,486,cs)
);
},
{
closed = 1;
nodes = (
(318,178,o),
(329,189,o),
(329,203,cs),
(329,217,o),
(318,228,o),
(304,228,cs),
(290,228,o),
(279,217,o),
(279,203,cs),
(279,189,o),
(290,178,o),
(304,178,cs)
);
}
);
width = 600;
},
{
layerId = m003;
shapes = (
{
closed = 1;
nodes = (
(126,704,o),
(24,641,o),
(24,543,cs),
(24,488,o),
(83,431,o),
(83,380,cs),
(83,303,o),
(18,228,o),
(18,151,cs),
(18,16,o),
(228,0,o),
(300,0,cs),
(421,0,o),
(578,20,o),
(578,151,cs),
(578,228,o),
(513,303,o),
(513,380,cs),
(513,434,o),
(578,489,o),
(578,543,cs),
(578,619,o),
(513,704,o),
(300,704,cs)
);
},
{
closed = 1;
nodes = (
(468,392,o),
(490,480,o),
(490,511,cs),
(490,599,o),
(423,630,o),
(300,630,cs),
(180,630,o),
(104,589,o),
(104,511,cs),
(104,461,o),
(140,392,o),
(304,392,cs)
);
},
{
closed = 1;
nodes = (
(490,58,o),
(529,134,o),
(507,203,cs),
(489,260,o),
(448,329,o),
(304,329,cs),
(196,329,o),
(103,282,o),
(83,203,cs),
(46,55,o),
(246,58,o),
(304,58,cs)
);
}
);
width = 600;
}
);
unicode = 56;
},
{
glyphname = nine;
lastChange = "2024-04-19 01:55:57 +0000";
layers = (
{
layerId = m01;
shapes = (
{
closed = 1;
nodes = (
(314,643,o),
(217,587,o),
(121,530,c),
(163,494,o),
(204,458,o),
(246,422,c),
(246,281,o),
(246,141,o),
(246,0,c),
(301,233,o),
(355,467,o),
(410,700,c)
);
},
{
closed = 1;
nodes = (
(301,498,o),
(312,509,o),
(312,523,cs),
(312,537,o),
(301,548,o),
(287,548,cs),
(273,548,o),
(262,537,o),
(262,523,cs),
(262,509,o),
(273,498,o),
(287,498,cs)
);
}
);
width = 600;
},
{
layerId = m002;
shapes = (
{
closed = 1;
nodes = (
(385,809,o),
(121,642,o),
(121,530,cs),
(121,475,o),
(246,477,o),
(246,422,cs),
(246,281,o),
(246,141,o),
(246,0,cs),
(246,-239,o),
(464,467,o),
(410,700,cs)
);
},
{
closed = 1;
nodes = (
(301,498,o),
(312,509,o),
(312,523,cs),
(312,537,o),
(301,548,o),
(287,548,cs),
(273,548,o),
(262,537,o),
(262,523,cs),
(262,509,o),
(273,498,o),
(287,498,cs)
);
}
);
width = 600;
},
{
layerId = m003;
shapes = (
{
closed = 1;
nodes = (
(220,727,o),
(46,668,o),
(26,530,cs),
(5,383,o),
(88,383,o),
(158,383,cs),
(227,383,o),
(-17,43,o),
(246,0,cs),
(664,-70,o),
(678,662,o),
(410,700,cs)
);
},
{
closed = 1;
nodes = (
(334,440,o),
(474,432,o),
(474,523,cs),
(474,609,o),
(455,641,o),
(287,641,cs),
(236,641,o),
(115,619,o),
(115,523,cs),
(115,409,o),
(186,428,o),
(287,436,cs)
);
}
);
width = 600;
}
);
unicode = 57;
},
